<svg width="348" height="157" viewBox="0 0 348 157" fill="none" xmlns="http://www.w3.org/2000/svg">
<g clip-path="url(#clip0_784_22)">
<path d="M316.207 86.7712L2.09912 93.5948C2.09912 93.5948 -5.81627 81.1698 9.08157 80.0349C23.9648 78.9147 317.14 82.2464 317.14 82.2464C318.613 82.4356 319.706 83.3231 319.808 84.2251C319.939 85.4181 318.408 86.8876 316.222 86.7567L316.207 86.7712Z" fill="#F8B724"/>
<path d="M249.721 55.1268C256.922 56.3489 255.945 59.8552 255.945 59.8552C254.677 64.0163 248.088 63.8854 245.523 63.8854C243.992 63.8854 243.715 64.0454 243.292 64.9765C242.841 66.6351 244.065 67.9591 245.304 68.5265C247.228 69.3995 251.15 70.0396 255.96 67.6972C264.269 63.638 260.8 54.9231 260.625 54.6175C259.459 52.5516 258.803 51.5477 252.403 49.7436H252.374C247.972 48.5069 248.555 44.3458 248.555 44.3458C249.706 39.8647 255.144 40.112 257.709 40.3157C258.569 40.3885 259.415 39.9665 259.881 39.2245C260.61 38.046 260.479 36.3874 258.934 35.6891C257.01 34.8161 253.73 33.7831 248.919 36.1401C240.61 40.1993 241.193 47.5757 242.272 49.7727C243.54 52.3333 245.712 54.0501 248.103 54.7194L249.721 55.1559V55.1268Z" fill="#F8B724"/>
<path d="M345.347 117.353C343.189 124.963 342.052 128.92 338.117 132.586C332.023 138.275 322.402 138.406 303.438 138.435C278.598 138.479 273.365 135.074 270.799 132.95C266.426 129.327 264.735 125.239 262.636 120.191C255.552 103.139 258.088 82.1736 266.718 76.6158C267.534 76.0921 269.415 75.0445 271.164 72.8913C271.747 72.1783 275.522 67.5372 274.648 62.0667C274.108 58.7204 271.936 57.1491 273.146 55.6214C274.312 54.1665 276.98 53.8173 277.184 53.8028C281.586 53.279 284.021 56.5089 288.204 55.9269C289.108 55.796 290.012 55.4614 291.003 54.8066C295.231 51.9841 296.076 46.5427 301.441 46.339C303.408 46.2663 304.764 46.4118 305.872 46.8192C307.49 47.4157 308.394 48.2304 311.309 51.5913C314.516 55.2722 314.691 55.6505 315.682 55.9269C317.884 56.5525 320.376 55.6068 324.108 54.1956C328.948 52.3769 329.953 51.0384 332.227 51.3003C334.341 51.5476 335.974 52.988 336.673 54.1956C338.131 56.6835 334.764 58.473 334.414 63.2743C334.122 67.3626 335.93 70.5634 336.63 71.6546C337.985 73.7642 339.574 74.9572 340.041 75.321C346.003 80.064 350.668 98.6142 345.332 117.353H345.347Z" fill="#FCDDC8"/>
<path d="M312.403 114.575L1.34105 73.6187C1.34105 73.6187 -4.21284 60.1607 10.6704 61.3101C25.5683 62.4595 314.137 110.268 314.137 110.268C315.551 110.675 316.47 111.708 316.411 112.625C316.324 113.818 314.56 115.04 312.417 114.575H312.403Z" fill="#E02526"/>
<path d="M283.03 94.5986L279.969 99.7927" stroke="#EA2027" stroke-width="0.7" stroke-miterlimit="10" stroke-linecap="round"/>
<path d="M289.356 94.5986L286.295 99.7927" stroke="#EA2027" stroke-width="0.7" stroke-miterlimit="10" stroke-linecap="round"/>
<path d="M277.767 94.5986L274.721 99.7927" stroke="#EA2027" stroke-width="0.7" stroke-miterlimit="10" stroke-linecap="round"/>
<path d="M272.301 94.5986L269.24 99.7927" stroke="#EA2027" stroke-width="0.7" stroke-miterlimit="10" stroke-linecap="round"/>
<path d="M330.362 94.9478L327.301 100.142" stroke="#EA2027" stroke-width="0.7" stroke-miterlimit="10" stroke-linecap="round"/>
<path d="M336.688 94.9478L333.627 100.142" stroke="#EA2027" stroke-width="0.7" stroke-miterlimit="10" stroke-linecap="round"/>
<path d="M325.1 94.9478L322.038 100.142" stroke="#EA2027" stroke-width="0.7" stroke-miterlimit="10" stroke-linecap="round"/>
<path d="M319.618 94.9478L316.572 100.142" stroke="#EA2027" stroke-width="0.7" stroke-miterlimit="10" stroke-linecap="round"/>
<path d="M165.771 54.3265C166.806 54.3265 166.806 52.7261 165.771 52.7261C164.736 52.7261 164.736 54.3265 165.771 54.3265Z" fill="#F8E5B2"/>
<path d="M58.5709 62.7068C50.2182 63.7834 42.5652 57.9056 41.4719 49.5689C40.3932 41.2322 46.2824 33.5939 54.6351 32.5027C54.6351 32.5027 63.5854 31.1206 67.9877 36.2564C67.9877 36.2564 68.323 37.0857 68.3959 37.7404C68.4688 38.3951 67.8128 40.0101 66.7341 40.1556C65.6554 40.3011 66.2676 39.9955 63.4542 38.5988C60.6408 37.2021 57.6379 37.8132 57.6379 37.8132C52.5068 38.4824 48.8771 43.1673 49.5476 48.2886C50.2182 53.4099 54.912 57.0326 60.0432 56.3633C60.0432 56.3633 64.8536 56.1742 66.6758 53.308C66.6758 53.308 67.4046 52.115 68.3813 52.8715C69.358 53.6281 70.8303 54.7484 70.1306 56.1597C69.4309 57.5709 66.8798 61.6301 58.5563 62.7068H58.5709Z" fill="#F8B724"/>
<path d="M99.7659 43.0801C96.9671 41.6543 93.9642 42.2363 93.9642 42.2363C88.8184 42.8473 85.1596 47.5031 85.7718 52.6389C86.3841 57.7748 91.0487 61.4266 96.1945 60.8155C96.1945 60.8155 101.894 59.7825 102.987 55.4323C102.987 55.4323 103.643 56.96 104.576 57.411C105.684 57.9494 106.996 59.317 106.282 60.7137C105.568 62.1104 102.973 66.1405 94.6493 67.1299C86.282 68.1192 78.6873 62.1541 77.6961 53.8028C76.7048 45.4516 82.6815 37.8715 91.0487 36.8822C91.0487 36.8822 99.0808 35.4127 103.877 42.149C103.877 42.149 105.845 45.8444 104.751 46.9356C103.658 48.0268 90.145 53.0317 90.145 53.0317C90.145 53.0317 89.0517 53.4682 88.3957 51.9406C87.7397 50.4129 87.5211 49.3363 88.833 48.4633C90.145 47.5904 99.8096 43.0656 99.8096 43.0656L99.7659 43.0801Z" fill="#F8B724"/>
<path d="M152.521 68.09C151.063 68.221 150.247 66.8533 150.115 65.7622L148.395 52.3769C148.395 52.3769 148.381 52.2605 148.366 52.1878C148.25 51.4167 147.287 46.8191 142.142 47.2847C139.081 47.5612 136.675 50.3109 136.894 52.6679L137.186 67.7554C137.273 68.7156 136.675 69.5449 135.407 69.6613L134.635 69.7341C133.264 69.865 132.681 69.2248 132.579 68.1919L130.174 53.6427C130.174 53.6427 130.145 53.4972 130.145 53.4099C130.043 52.7116 128.585 48.5359 124.474 48.9142C120.014 49.3216 118.177 51.3148 118.527 55.1122L119.489 68.6138C119.605 69.9087 118.993 71.1744 116.778 71.3781L113.716 71.6546L113.454 68.832L111.573 48.4632C111.573 48.3759 111.705 47.7648 111.763 47.5321C112.098 46.179 113.221 41.9888 119.329 41.2468C125.072 40.5485 128.366 40.6212 130.815 41.9452C131.69 42.4253 133.425 42.338 134.095 41.6105C134.984 40.6649 136.792 39.4282 139.343 39.1954C143.891 38.7735 149.751 37.3622 153.177 42.4835C153.789 43.4146 154.153 44.4767 154.255 45.5679L156.121 65.8349L156.282 67.6099L152.492 68.0755L152.521 68.09Z" fill="#E02526"/>
<path d="M188.235 64.6857H185.829C183.963 64.6857 184.138 59.1861 184.138 59.1861L184.197 43.1238C184.197 41.5525 183.103 40.9124 182.068 40.9124H181.689C179.43 40.9124 178.089 42.8037 178.089 45.1316V62.8088C178.089 67.3045 181.194 70.9418 185.028 70.9418H187.112C189.401 70.9418 191.339 69.2105 191.995 66.7953C192.243 65.8933 191.704 64.7584 190.902 64.6857H188.22H188.235Z" fill="#E02526"/>
<path d="M210.406 71.48L213.657 71.5673C216.019 71.6255 216.5 70.3743 216.558 68.0173L217.199 54.4429C217.199 54.4429 217.301 50.8202 222.506 50.9657C230.479 51.1839 229.809 53.9774 229.677 68.3519C229.648 70.7962 230.348 72.0329 232.403 72.0911L235.654 72.1784L236.091 57.8911C236.325 49.278 233.934 42.2071 223.409 41.9307L220.45 41.8434C215.363 41.6979 211.135 45.3061 211.033 48.9288L210.421 71.4946L210.406 71.48Z" fill="#E02526"/>
<path d="M305.056 35.6456C305.653 35.6019 307.884 29.9859 307.315 23.5116C306.849 18.1429 304.939 17.7646 304.356 12.3378C303.554 4.87408 306.572 0.0146623 305.478 0.000113168C304.312 -0.0289852 299.939 5.55789 299.633 11.4939C299.371 16.6589 302.344 17.2409 303.977 24.2099C305.508 30.7716 304.487 35.7183 305.07 35.6601L305.056 35.6456Z" fill="#E02526"/>
<path d="M324.181 43.4872C324.604 43.4581 326.12 38.9333 325.595 33.6374C325.158 29.2581 323.787 28.909 323.277 24.486C322.563 18.3899 324.633 14.4907 323.846 14.4471C323 14.4034 319.968 18.87 319.852 23.7004C319.75 27.9051 321.907 28.4288 323.19 34.1321C324.4 39.5007 323.758 43.5018 324.181 43.4727V43.4872Z" fill="#E02526"/>
<path d="M283.569 43.4872C283.992 43.4581 285.508 38.9333 284.983 33.6374C284.546 29.2581 283.175 28.909 282.665 24.486C281.951 18.3899 284.021 14.4907 283.234 14.4471C282.388 14.4034 279.356 18.87 279.24 23.7004C279.138 27.9051 281.295 28.4288 282.578 34.1321C283.788 39.5007 283.146 43.5018 283.569 43.4727V43.4872Z" fill="#E02526"/>
<path d="M202.914 70.9127V44.3604C202.914 42.76 201.82 42.1199 200.771 42.1199H200.392C198.132 42.1199 196.791 44.0404 196.791 46.3973V64.3219C196.791 69.4868 196.922 70.9127 199.284 70.9127H202.914Z" fill="#F8B724"/>
<path d="M199.342 33.0848C199.342 33.0848 201.339 32.5465 202.578 35.2235C203.817 37.886 202.418 38.1334 202.418 38.1334C198.366 38.1334 197.301 39.7192 197.301 39.7192C197.301 39.7192 196.689 40.7377 196.689 39.1082C196.689 37.6969 197.433 33.0848 199.342 33.0848Z" fill="#E02526"/>
<path d="M170.815 70.9127V44.3604C170.815 42.76 169.721 42.1199 168.672 42.1199H168.293C166.033 42.1199 164.692 44.0404 164.692 46.3973V64.3219C164.692 69.4868 164.824 70.9127 167.185 70.9127H170.815Z" fill="#F8B724"/>
<path d="M167.244 33.0848C167.244 33.0848 169.241 32.5465 170.48 35.2235C171.719 37.886 170.319 38.1334 170.319 38.1334C166.267 38.1334 165.203 39.7192 165.203 39.7192C165.203 39.7192 164.591 40.7377 164.591 39.1082C164.591 37.6969 165.334 33.0848 167.244 33.0848Z" fill="#E02526"/>
<path d="M293 83.745C292.913 82.0718 291.484 80.9225 291.135 80.777C290.872 80.6606 281.076 77.7507 275.668 75.9903C274.006 75.452 272.286 76.6596 272.374 78.3182L272.403 78.7837C272.403 78.7837 272.388 80.5005 273.438 80.5005L276.863 81.4753C277.053 81.5335 277.228 81.6063 277.388 81.6936L284.925 83.7159L277.388 85.7237C277.257 85.7819 277.126 85.8401 276.98 85.8983C275.872 86.262 274.764 86.6694 273.729 87.1349C272.855 87.5132 272.315 88.3425 272.315 89.2446C272.315 90.8595 274.021 91.9798 275.639 91.4415C280.041 89.9429 287.534 87.4987 290.216 87.3095C291.936 87.0913 293.102 85.389 293.015 83.7595L293 83.745Z" fill="#F8B724"/>
<path d="M313 83.745C313.088 82.0718 314.516 80.9225 314.866 80.777C315.129 80.6606 324.924 77.7507 330.333 75.9903C331.994 75.452 333.714 76.6596 333.627 78.3182L333.598 78.7837C333.598 78.7837 333.612 80.5005 332.563 80.5005L329.137 81.4753C328.948 81.5335 328.773 81.6063 328.612 81.6936L321.076 83.7159L328.612 85.7237C328.744 85.7819 328.875 85.8401 329.021 85.8983C330.129 86.262 331.236 86.6694 332.271 87.1349C333.146 87.5132 333.685 88.3425 333.685 89.2446C333.685 90.8595 331.98 91.9798 330.362 91.4415C325.959 89.9429 318.467 87.4987 315.785 87.3095C314.065 87.0913 312.898 85.389 312.986 83.7595L313 83.745Z" fill="#F8B724"/>
<path d="M301.761 133.43C302.855 134.362 314.094 134.827 318.102 134.696C326.994 134.42 328.423 134.245 330.595 133.474C332.621 132.747 334.093 131.874 334.327 131.728C334.327 131.728 334.691 131.51 335.201 131.146C335.201 131.146 336.178 130.462 337.053 129.662C337.942 128.862 340.245 125.807 342.213 121.296C342.985 119.914 346.076 111.825 344.895 110.123C344.837 110.035 344.793 109.992 344.72 109.977C343.292 109.57 341.018 122.184 330.566 127.349C322.155 131.495 302.432 128.658 301.863 131.597C301.747 132.208 301.164 132.936 301.747 133.43H301.761Z" fill="#FABD93"/>
<path d="M312.913 56.4071C312.344 57.3964 309.079 55.1995 304.443 55.054C297.344 54.8503 297.038 59.7679 289.327 60.0443C285.041 60.2044 281.47 58.8222 278.277 60.6554C277.898 60.8736 276.936 61.4847 276.237 61.1064C275.26 60.5681 274.939 58.0511 275.858 56.8435C277.796 54.2538 283.744 59.6079 290.26 57.5128C296.63 55.4614 296.892 48.4341 302.242 48.3614C305.58 48.3177 308.598 50.9948 309.939 52.1732C310.245 52.4497 313.496 55.3595 312.913 56.378V56.4071Z" fill="#FABD93"/>
<path d="M207.447 114.269C207.593 114.371 207.71 114.473 207.826 114.589C208.278 114.996 208.599 115.375 208.788 115.724C209.124 116.262 209.357 116.815 209.488 117.426C209.532 117.674 209.546 117.819 209.517 117.848C209.459 117.906 209.196 117.95 208.701 117.994L208.074 118.052L207.972 117.586C207.826 116.902 207.462 116.306 206.908 115.782C206.675 115.564 206.456 115.418 206.237 115.302C205.086 114.72 203.992 114.764 202.987 115.433C202.753 115.593 202.549 115.768 202.374 115.957C201.762 116.611 201.485 117.353 201.529 118.212C201.543 118.707 201.689 119.187 201.937 119.652C202.097 119.943 202.316 120.22 202.578 120.467C203.132 120.976 203.788 121.282 204.59 121.398C204.809 121.442 204.911 121.456 204.911 121.471V121.573C204.911 121.645 204.911 121.747 204.911 121.878C204.911 122.009 204.911 122.126 204.911 122.227V122.926L204.707 122.911C204.051 122.911 203.336 122.678 202.535 122.256C202.185 122.053 201.937 121.864 201.762 121.718C201.733 121.689 201.689 121.645 201.631 121.587C201.558 121.514 201.514 121.471 201.471 121.427C201.15 121.122 200.917 120.845 200.771 120.583C200.61 120.321 200.465 120.016 200.319 119.638C199.882 118.474 199.94 117.295 200.494 116.117C200.669 115.768 200.946 115.375 201.325 114.967C201.66 114.604 201.966 114.342 202.214 114.167C202.462 114.007 202.812 113.833 203.264 113.658C203.905 113.425 204.605 113.367 205.363 113.469C206.121 113.585 206.82 113.847 207.447 114.284V114.269Z" fill="#EDA783"/>
<path d="M209.707 121.456C210.173 121.558 210.61 121.776 211.004 122.096L211.164 122.227C211.806 122.809 212.156 123.464 212.199 124.191C212.243 124.919 211.966 125.646 211.398 126.359L211.121 126.708L209.386 125.297C208.234 124.366 207.651 123.901 207.637 123.915C207.637 123.93 207.608 124.002 207.578 124.119C207.52 124.439 207.593 124.759 207.782 125.094C207.884 125.268 208.03 125.443 208.234 125.603C208.511 125.821 208.788 125.966 209.094 126.01C209.269 126.039 209.401 126.083 209.488 126.127C209.575 126.17 209.736 126.287 209.998 126.505C210.363 126.796 210.538 126.956 210.508 126.985C210.479 127.029 210.319 127.087 210.057 127.145C209.794 127.203 209.561 127.247 209.386 127.247C208.759 127.276 208.176 127.087 207.637 126.694L207.491 126.578C206.82 126.039 206.441 125.385 206.368 124.643C206.281 123.901 206.529 123.188 207.083 122.504C207.841 121.573 208.73 121.238 209.75 121.471L209.707 121.456ZM210.815 123.74C210.712 123.508 210.538 123.289 210.29 123.086C209.852 122.722 209.415 122.591 208.992 122.649C208.672 122.678 208.482 122.751 208.395 122.853C208.366 122.882 208.759 123.231 209.59 123.901C210.421 124.57 210.844 124.89 210.873 124.861C210.946 124.773 210.96 124.57 210.946 124.235C210.931 124.061 210.887 123.886 210.815 123.74Z" fill="#EDA783"/>
<path d="M215.756 125.908C215.975 125.981 216.164 126.083 216.368 126.214C216.864 126.563 217.199 126.97 217.36 127.436L217.433 127.64C217.476 127.771 217.491 127.873 217.506 127.945L217.564 128.251L217.885 128.207C218.54 128.105 219.138 128.222 219.707 128.571C219.721 128.571 219.75 128.6 219.809 128.629C219.852 128.658 219.896 128.673 219.925 128.702C220.436 129.066 220.785 129.56 220.96 130.215C221.135 130.855 221.091 131.481 220.815 132.063C220.712 132.281 220.363 132.805 219.765 133.663L218.847 134.958L217.797 134.216L219.721 131.495L219.78 131.146C219.882 130.55 219.678 130.069 219.167 129.72C218.803 129.458 218.395 129.386 217.957 129.488C217.695 129.546 217.462 129.677 217.287 129.866C217.097 130.055 216.747 130.506 216.237 131.233L215.348 132.499L214.342 131.786L215.261 130.491C215.887 129.604 216.223 129.066 216.281 128.862C216.368 128.542 216.354 128.236 216.237 127.945C216.121 127.654 215.946 127.422 215.698 127.261C215.363 127.029 214.984 126.941 214.575 127.014C214.299 127.058 214.065 127.174 213.905 127.32C213.745 127.48 213.395 127.931 212.855 128.702L211.893 130.069L210.844 129.327L214.124 124.686L215.173 125.428L214.955 125.734L215.188 125.763C215.334 125.777 215.523 125.836 215.771 125.908H215.756Z" fill="#EDA783"/>
<path d="M219.998 135.613L223.074 130.753L224.109 131.408L221.033 136.267L219.998 135.613ZM223.788 129.618L224.182 128.993L225.217 129.647L224.823 130.273L223.788 129.618Z" fill="#EDA783"/>
<path d="M222.024 136.864L226.15 130.069L227.185 130.695L223.059 137.489L222.024 136.864Z" fill="#EDA783"/>
<path d="M224.08 138.101L226.98 133.139L228.03 133.75L225.129 138.712L224.08 138.101ZM227.651 131.975L228.015 131.335L229.065 131.946L228.701 132.586L227.651 131.975Z" fill="#EDA783"/>
<path d="M226.208 139.381L228.905 134.303L230.042 134.9L229.852 135.249C229.721 135.482 229.692 135.613 229.736 135.642C229.75 135.642 229.794 135.642 229.838 135.627C229.911 135.584 230.1 135.584 230.435 135.613C230.756 135.642 231.033 135.671 231.237 135.714C231.456 135.773 231.704 135.875 231.995 136.02C232.301 136.18 232.52 136.326 232.651 136.457C233.03 136.791 233.322 137.199 233.54 137.664C233.744 138.13 233.846 138.61 233.832 139.061C233.832 139.468 233.773 139.803 233.671 140.065C233.584 140.327 233.351 140.792 233.001 141.447L232.374 142.625L231.295 142.058L231.82 141.069C232.126 140.501 232.316 140.094 232.403 139.846C232.491 139.599 232.549 139.337 232.549 139.075C232.549 138.683 232.447 138.29 232.214 137.926C231.995 137.548 231.704 137.271 231.368 137.097C231.295 137.068 231.193 137.024 231.062 136.966C230.319 136.747 229.634 136.878 229.007 137.329L228.642 137.591C228.497 137.868 228.278 138.261 227.986 138.799C227.695 139.323 227.476 139.716 227.33 139.992L226.193 139.395L226.208 139.381Z" fill="#EDA783"/>
<path d="M237.738 138.799C237.899 138.843 238.059 138.886 238.205 138.959C238.701 139.192 239.08 139.526 239.356 139.992C239.619 140.458 239.721 140.938 239.633 141.432L239.604 141.607L239.007 141.33C238.715 141.2 238.54 141.112 238.482 141.069C238.424 141.025 238.38 140.952 238.336 140.85C238.234 140.516 238.001 140.254 237.636 140.079C237.491 140.007 237.33 139.977 237.17 139.977C236.937 139.963 236.776 140.036 236.689 140.196C236.689 140.225 236.674 140.268 236.674 140.312C236.689 140.501 236.966 140.807 237.491 141.229C238.03 141.665 238.38 142.072 238.526 142.436C238.686 142.8 238.671 143.178 238.482 143.586C238.365 143.833 238.234 144.008 238.088 144.109C237.811 144.299 237.476 144.4 237.082 144.429C236.689 144.444 236.281 144.371 235.873 144.182L235.698 144.095C235.348 143.92 235.1 143.731 234.925 143.527C234.765 143.324 234.648 143.091 234.531 142.815C234.429 142.538 234.371 142.291 234.371 142.072C234.371 141.811 234.371 141.665 234.4 141.636C234.429 141.563 234.604 141.592 234.925 141.738L235.027 141.782L235.596 142.043L235.727 142.363C235.858 142.684 236.062 142.902 236.354 143.033C236.397 143.062 236.485 143.091 236.616 143.12C236.776 143.149 236.937 143.164 237.112 143.149C237.272 143.149 237.374 143.105 237.389 143.062C237.447 142.931 237.214 142.64 236.689 142.189C236.091 141.694 235.712 141.243 235.552 140.865C235.391 140.472 235.391 140.079 235.596 139.657C235.785 139.25 236.062 138.974 236.441 138.828C236.82 138.683 237.257 138.668 237.753 138.784L237.738 138.799Z" fill="#EDA783"/>
<path d="M247.316 142.931C247.476 142.974 247.622 143.004 247.724 143.047C248.19 143.222 248.569 143.469 248.875 143.804C249.036 143.993 249.123 144.08 249.138 144.095C249.152 144.095 249.196 144.022 249.254 143.862L249.342 143.644L250.479 144.066L248.482 149.449L247.345 149.027L247.52 148.561L247.126 148.605C246.645 148.663 246.193 148.605 245.756 148.445C245.26 148.27 244.867 147.994 244.575 147.659C244.24 147.266 244.021 146.801 243.919 146.277C243.832 145.753 243.875 145.259 244.05 144.779C244.123 144.589 244.182 144.458 244.24 144.371C244.561 143.833 244.998 143.425 245.552 143.164C246.12 142.902 246.703 142.829 247.316 142.945V142.931ZM247.87 144.575C247.738 144.444 247.578 144.342 247.345 144.269C247.097 144.182 246.864 144.138 246.631 144.153C246.295 144.182 246.018 144.284 245.771 144.488C245.523 144.677 245.348 144.924 245.246 145.2C245.1 145.608 245.115 146.03 245.319 146.481C245.391 146.626 245.508 146.786 245.683 146.961C245.858 147.135 246.018 147.252 246.15 147.296C246.514 147.426 246.922 147.412 247.359 147.223C247.811 147.034 248.103 146.728 248.263 146.292C248.365 146.001 248.394 145.695 248.322 145.39C248.249 145.084 248.103 144.808 247.855 144.575H247.87Z" fill="#EDA783"/>
<path d="M249.123 151.558L251.529 144.313L252.68 144.691L250.275 151.937L249.123 151.558ZM251.951 143.033L252.184 142.334L253.336 142.712L253.103 143.411L251.951 143.033Z" fill="#EDA783"/>
<path d="M255.989 145.841C256.164 145.87 256.295 145.899 256.397 145.928C256.864 146.059 257.272 146.292 257.607 146.597C257.782 146.772 257.87 146.859 257.899 146.859C257.913 146.859 257.957 146.786 258.001 146.626L258.074 146.393L259.24 146.728L257.622 152.242L256.456 151.908L256.601 151.427L256.208 151.5C255.741 151.588 255.275 151.558 254.823 151.427C254.327 151.282 253.905 151.049 253.599 150.715C253.234 150.336 252.986 149.9 252.855 149.391C252.724 148.881 252.738 148.387 252.884 147.892C252.943 147.703 252.986 147.557 253.045 147.47C253.322 146.903 253.73 146.481 254.269 146.175C254.808 145.884 255.391 145.768 256.004 145.826L255.989 145.841ZM256.66 147.441C256.529 147.325 256.354 147.237 256.12 147.165C255.873 147.092 255.639 147.077 255.406 147.106C255.085 147.15 254.794 147.281 254.561 147.499C254.327 147.717 254.167 147.95 254.08 148.241C253.963 148.663 254.007 149.085 254.24 149.507C254.313 149.653 254.459 149.813 254.633 149.973C254.823 150.133 254.983 150.234 255.129 150.278C255.508 150.395 255.902 150.336 256.324 150.133C256.762 149.914 257.039 149.58 257.17 149.143C257.257 148.852 257.257 148.547 257.17 148.241C257.082 147.936 256.908 147.674 256.645 147.456L256.66 147.441Z" fill="#EDA783"/>
<path d="M259.706 152.475L260.727 151.34L262.461 151.762L262.243 151.966C262.243 151.966 262.141 152.068 262.039 152.199C261.937 152.33 261.791 152.475 261.63 152.664C261.47 152.839 261.324 153.013 261.179 153.159L260.304 154.134L259.473 153.93C258.919 153.799 258.657 153.712 258.657 153.668C258.671 153.595 259.021 153.203 259.677 152.475H259.706Z" fill="#EDA783"/>
<path d="M270.304 149.1C270.464 149.1 270.639 149.1 270.799 149.143C271.339 149.231 271.791 149.478 272.17 149.842C272.549 150.22 272.767 150.656 272.811 151.166V151.34L272.184 151.224C271.864 151.166 271.674 151.122 271.616 151.093C271.543 151.064 271.485 151.006 271.426 150.918C271.237 150.613 270.945 150.424 270.552 150.365C270.391 150.336 270.231 150.336 270.071 150.38C269.837 150.424 269.706 150.54 269.677 150.715C269.677 150.744 269.677 150.787 269.677 150.831C269.75 151.006 270.085 151.238 270.697 151.515C271.339 151.806 271.776 152.097 272.009 152.417C272.257 152.737 272.33 153.101 272.257 153.537C272.213 153.799 272.126 154.003 272.009 154.148C271.791 154.395 271.499 154.599 271.106 154.716C270.727 154.832 270.318 154.861 269.867 154.788L269.677 154.759C269.298 154.686 269.006 154.57 268.773 154.41C268.569 154.25 268.38 154.061 268.219 153.828C268.044 153.595 267.928 153.363 267.869 153.144C267.811 152.897 267.782 152.751 267.782 152.722C267.797 152.635 267.971 152.621 268.307 152.679H268.423L269.036 152.81L269.254 153.086C269.458 153.363 269.721 153.523 270.027 153.581C270.085 153.581 270.173 153.581 270.304 153.595C270.464 153.581 270.625 153.552 270.785 153.493C270.945 153.435 271.018 153.392 271.033 153.333C271.062 153.188 270.756 152.97 270.143 152.679C269.444 152.344 268.963 152.024 268.7 151.689C268.438 151.355 268.35 150.962 268.423 150.511C268.496 150.074 268.7 149.725 269.021 149.492C269.342 149.245 269.764 149.129 270.275 149.114L270.304 149.1Z" fill="#EDA783"/>
<path d="M275.624 150.293C276.076 150.133 276.557 150.089 277.068 150.147L277.272 150.176C278.132 150.322 278.758 150.7 279.196 151.311C279.633 151.922 279.779 152.664 279.662 153.581L279.604 154.032L277.374 153.755C275.901 153.566 275.158 153.493 275.158 153.508C275.158 153.523 275.172 153.595 275.216 153.712C275.347 154.003 275.566 154.25 275.901 154.425C276.076 154.526 276.295 154.585 276.557 154.614C276.907 154.657 277.228 154.614 277.505 154.512C277.68 154.454 277.811 154.41 277.898 154.396C277.986 154.396 278.205 154.396 278.525 154.439C278.992 154.497 279.225 154.541 279.225 154.57C279.225 154.628 279.123 154.745 278.933 154.948C278.744 155.152 278.569 155.298 278.423 155.385C277.913 155.734 277.315 155.894 276.63 155.836L276.441 155.807C275.581 155.705 274.925 155.356 274.458 154.759C273.992 154.163 273.817 153.435 273.933 152.577C274.079 151.398 274.648 150.627 275.639 150.293H275.624ZM277.782 151.646C277.578 151.5 277.315 151.413 276.995 151.369C276.426 151.297 275.989 151.398 275.668 151.689C275.42 151.879 275.289 152.039 275.275 152.17C275.275 152.213 275.785 152.3 276.849 152.431C277.913 152.562 278.438 152.606 278.452 152.562C278.452 152.46 278.379 152.271 278.19 151.995C278.073 151.849 277.957 151.733 277.811 151.646H277.782Z" fill="#EDA783"/>
<path d="M282.957 150.729C283.117 150.715 283.292 150.7 283.452 150.729C283.992 150.773 284.473 150.962 284.881 151.297C285.289 151.631 285.551 152.053 285.654 152.548L285.683 152.722L285.027 152.664C284.706 152.635 284.516 152.621 284.444 152.591C284.371 152.577 284.312 152.519 284.24 152.446C284.021 152.155 283.715 152.01 283.307 151.966C283.146 151.966 282.986 151.966 282.84 152.024C282.607 152.097 282.49 152.213 282.476 152.402C282.476 152.431 282.476 152.475 282.505 152.519C282.592 152.679 282.942 152.882 283.584 153.101C284.24 153.319 284.706 153.581 284.983 153.872C285.26 154.163 285.377 154.527 285.333 154.963C285.318 155.225 285.245 155.443 285.143 155.589C284.954 155.865 284.677 156.083 284.298 156.243C283.933 156.403 283.525 156.462 283.073 156.432H282.884C282.505 156.374 282.199 156.287 281.951 156.156C281.732 156.025 281.528 155.851 281.339 155.632C281.149 155.414 281.018 155.196 280.931 154.992C280.843 154.745 280.799 154.614 280.799 154.585C280.799 154.497 280.974 154.468 281.324 154.497H281.441L282.068 154.556L282.301 154.818C282.534 155.065 282.796 155.21 283.117 155.239C283.175 155.239 283.263 155.239 283.394 155.239C283.554 155.21 283.715 155.167 283.861 155.094C284.006 155.021 284.094 154.963 284.094 154.905C284.094 154.759 283.788 154.57 283.146 154.337C282.417 154.076 281.907 153.799 281.616 153.479C281.324 153.173 281.193 152.795 281.237 152.33C281.266 151.879 281.441 151.529 281.747 151.253C282.053 150.977 282.447 150.817 282.957 150.758V150.729Z" fill="#EDA783"/>
<path d="M286.907 152.49L286.951 151.049L288.175 151.093L288.132 152.373C288.102 153.188 288.132 153.741 288.205 154.046C288.336 154.527 288.598 154.905 288.992 155.21C289.385 155.516 289.808 155.661 290.26 155.676C290.479 155.676 290.683 155.661 290.887 155.603C291.776 155.327 292.315 154.745 292.49 153.857C292.534 153.625 292.578 153.13 292.592 152.388L292.621 151.238L293.846 151.282L293.671 157.029L292.446 156.985L292.476 156.229L292.286 156.345C291.616 156.753 290.916 156.942 290.202 156.927C289.458 156.898 288.788 156.665 288.205 156.214C287.621 155.763 287.213 155.167 287.009 154.439C286.936 154.206 286.907 153.988 286.893 153.799C286.893 153.61 286.893 153.173 286.907 152.519V152.49Z" fill="#EDA783"/>
<path d="M297.359 151.311C297.534 151.282 297.665 151.268 297.782 151.268C298.277 151.268 298.729 151.355 299.137 151.544C299.356 151.66 299.473 151.719 299.487 151.719C299.502 151.719 299.516 151.631 299.516 151.457V151.224L300.726 151.195L300.843 156.942L299.619 156.971V156.476L299.254 156.665C298.831 156.884 298.379 157 297.913 157.014C297.388 157.014 296.922 156.927 296.528 156.709C296.062 156.462 295.697 156.112 295.42 155.661C295.143 155.21 294.998 154.73 294.998 154.221C294.998 154.017 294.998 153.872 295.027 153.77C295.114 153.144 295.377 152.621 295.814 152.17C296.237 151.719 296.761 151.442 297.374 151.326L297.359 151.311ZM298.481 152.635C298.321 152.562 298.117 152.533 297.884 152.533C297.621 152.533 297.388 152.592 297.184 152.693C296.893 152.839 296.659 153.043 296.499 153.319C296.339 153.595 296.266 153.872 296.266 154.177C296.266 154.614 296.455 155.007 296.805 155.341C296.922 155.458 297.097 155.56 297.33 155.661C297.563 155.763 297.738 155.807 297.898 155.807C298.292 155.807 298.656 155.632 298.992 155.298C299.342 154.963 299.502 154.556 299.502 154.105C299.502 153.799 299.4 153.508 299.225 153.246C299.05 152.984 298.802 152.781 298.496 152.65L298.481 152.635Z" fill="#EDA783"/>
<path d="M301.688 149.725L301.645 148.983L302.869 148.925L302.913 149.667L301.688 149.725ZM302.038 156.811L301.747 151.078L302.971 151.02L303.263 156.752L302.038 156.811Z" fill="#EDA783"/>
<path d="M309.881 150.467C310.041 150.424 310.201 150.38 310.376 150.365C310.916 150.307 311.426 150.409 311.892 150.671C312.359 150.933 312.68 151.297 312.869 151.762L312.942 151.937L312.286 152.01C311.965 152.039 311.776 152.053 311.703 152.039C311.63 152.039 311.557 151.995 311.47 151.922C311.207 151.675 310.872 151.588 310.478 151.617C310.318 151.631 310.172 151.675 310.026 151.762C309.808 151.864 309.72 152.01 309.735 152.199C309.735 152.228 309.749 152.271 309.779 152.301C309.895 152.446 310.274 152.577 310.945 152.679C311.63 152.781 312.14 152.955 312.461 153.188C312.782 153.421 312.956 153.755 313 154.192C313.029 154.454 313 154.672 312.927 154.847C312.782 155.152 312.548 155.414 312.213 155.632C311.878 155.851 311.499 155.981 311.047 156.04H310.857C310.478 156.083 310.158 156.054 309.895 155.967C309.662 155.88 309.429 155.734 309.196 155.56C308.962 155.385 308.802 155.196 308.685 155.007C308.554 154.788 308.481 154.657 308.481 154.628C308.481 154.541 308.642 154.483 308.977 154.454H309.094L309.72 154.381L309.997 154.599C310.26 154.803 310.566 154.89 310.872 154.861C310.93 154.861 311.018 154.832 311.134 154.803C311.295 154.745 311.44 154.672 311.572 154.57C311.703 154.468 311.776 154.396 311.761 154.352C311.747 154.206 311.397 154.076 310.726 153.959C309.968 153.828 309.414 153.639 309.064 153.392C308.729 153.144 308.525 152.795 308.481 152.33C308.438 151.879 308.54 151.5 308.787 151.18C309.035 150.86 309.4 150.627 309.895 150.482L309.881 150.467Z" fill="#EDA783"/>
<path d="M315.318 150.206C315.711 149.929 316.163 149.769 316.674 149.696L316.878 149.667C317.738 149.594 318.452 149.784 319.021 150.249C319.589 150.715 319.939 151.413 320.07 152.315L320.128 152.766L317.913 153.086C316.44 153.29 315.711 153.406 315.711 153.435C315.711 153.45 315.755 153.523 315.814 153.61C316.018 153.857 316.295 154.032 316.659 154.119C316.863 154.163 317.082 154.177 317.344 154.134C317.694 154.09 317.986 153.974 318.233 153.785C318.379 153.683 318.496 153.61 318.583 153.566C318.671 153.537 318.875 153.494 319.21 153.45C319.676 153.377 319.91 153.363 319.91 153.392C319.91 153.45 319.851 153.595 319.72 153.828C319.589 154.061 319.458 154.25 319.341 154.396C318.948 154.876 318.408 155.167 317.738 155.298L317.548 155.327C316.688 155.443 315.959 155.283 315.362 154.832C314.764 154.381 314.4 153.726 314.268 152.853C314.093 151.675 314.443 150.787 315.318 150.206ZM317.752 150.948C317.519 150.86 317.242 150.846 316.921 150.889C316.367 150.962 315.959 151.18 315.711 151.544C315.522 151.791 315.435 151.981 315.449 152.111C315.449 152.155 315.988 152.111 317.023 151.951C318.088 151.806 318.612 151.704 318.598 151.66C318.583 151.559 318.452 151.399 318.19 151.18C318.044 151.078 317.898 150.991 317.738 150.933L317.752 150.948Z" fill="#EDA783"/>
<path d="M321.659 154.701L320.333 146.874L321.528 146.67L322.854 154.497L321.659 154.701Z" fill="#EDA783"/>
<path d="M324.4 148.751C324.779 148.46 325.216 148.27 325.726 148.169L325.93 148.125C326.79 147.994 327.519 148.154 328.102 148.59C328.7 149.027 329.079 149.696 329.254 150.598L329.341 151.035L327.14 151.471C325.682 151.762 324.954 151.908 324.954 151.937C324.954 151.951 324.997 152.01 325.07 152.111C325.274 152.359 325.566 152.504 325.945 152.577C326.149 152.606 326.382 152.606 326.63 152.562C326.98 152.49 327.271 152.359 327.505 152.17C327.65 152.053 327.752 151.98 327.84 151.937C327.927 151.893 328.131 151.85 328.452 151.777C328.919 151.689 329.152 151.66 329.152 151.689C329.152 151.748 329.108 151.893 328.991 152.14C328.875 152.388 328.758 152.577 328.642 152.722C328.277 153.217 327.752 153.552 327.082 153.712L326.892 153.755C326.047 153.915 325.303 153.799 324.677 153.377C324.05 152.955 323.656 152.33 323.481 151.471C323.248 150.293 323.554 149.391 324.385 148.765L324.4 148.751ZM326.878 149.362C326.63 149.289 326.353 149.289 326.047 149.347C325.493 149.449 325.099 149.696 324.881 150.06C324.706 150.322 324.633 150.511 324.647 150.642C324.647 150.686 325.172 150.598 326.222 150.395C327.271 150.191 327.796 150.06 327.782 150.016C327.767 149.914 327.621 149.754 327.344 149.565C327.198 149.463 327.038 149.391 326.878 149.347V149.362Z" fill="#EDA783"/>
<path d="M331.003 152.912L329.706 147.252L330.886 146.976L331.061 147.761L331.207 147.616C331.615 147.165 332.14 146.815 332.767 146.583L333.102 146.466L333.233 147.063C333.292 147.339 333.335 147.514 333.321 147.572C333.321 147.63 333.292 147.674 333.233 147.718C332.781 147.936 332.461 148.139 332.257 148.358C332.052 148.59 331.921 148.809 331.834 148.998C331.703 149.303 331.63 149.565 331.644 149.798C331.644 150.031 331.732 150.526 331.892 151.282L332.184 152.65L331.003 152.926V152.912Z" fill="#EDA783"/>
<path d="M336.586 145.783C336.746 145.724 336.877 145.681 336.98 145.652C337.461 145.521 337.912 145.506 338.364 145.608C338.598 145.666 338.729 145.695 338.743 145.695C338.758 145.695 338.743 145.608 338.714 145.433L338.656 145.201L339.837 144.895L341.294 150.453L340.114 150.758L339.982 150.278L339.691 150.54C339.326 150.86 338.918 151.064 338.466 151.195C337.956 151.326 337.49 151.34 337.052 151.224C336.542 151.093 336.105 150.846 335.726 150.467C335.347 150.089 335.099 149.667 334.968 149.172C334.91 148.983 334.895 148.823 334.88 148.736C334.822 148.11 334.953 147.528 335.274 146.99C335.595 146.452 336.032 146.059 336.586 145.797V145.783ZM337.985 146.816C337.81 146.786 337.606 146.801 337.388 146.859C337.14 146.917 336.921 147.034 336.746 147.179C336.498 147.383 336.324 147.645 336.221 147.95C336.134 148.256 336.119 148.547 336.192 148.838C336.309 149.26 336.571 149.594 336.98 149.842C337.125 149.929 337.315 149.987 337.563 150.031C337.81 150.075 338 150.075 338.146 150.031C338.525 149.929 338.845 149.682 339.093 149.289C339.356 148.881 339.428 148.46 339.312 148.009C339.239 147.703 339.079 147.456 338.845 147.237C338.612 147.019 338.335 146.888 338 146.83L337.985 146.816Z" fill="#EDA783"/>
<path d="M345.843 146.524L343.816 139.963L345.114 139.555L347.14 146.117L345.843 146.524ZM346.44 149.041L345.959 147.47L347.534 146.99L348.015 148.561L346.44 149.041Z" fill="#EDA783"/>
</g>
<defs>
<clipPath id="clip0_784_22">
<rect width="348" height="157" fill="white"/>
</clipPath>
</defs>
</svg>
